name D:\school\WTK\thesis\model\3dpredictsim\Results\debug_batch\Pog_s1_tmt_bCst_d00_k800_ig24_pas.mot
datacolumns 128
datarows 4
range 1.11160288 1.14495096
endheader
time	pelvis_tilt	pelvis_list	pelvis_rotation	pelvis_tx	pelvis_ty	pelvis_tz	hip_flexion_l	hip_adduction_l	hip_rotation_l	hip_flexion_r	hip_adduction_r	hip_rotation_r	knee_angle_l	knee_angle_r	ankle_angle_l	ankle_angle_r	subtalar_angle_l	subtalar_angle_r	tmt_angle_l	tmt_angle_r	mtp_angle_l	mtp_angle_r	lumbar_extension	lumbar_bending	lumbar_rotation	arm_flex_l	arm_add_l	arm_rot_l	arm_flex_r	arm_add_r	arm_rot_r	elbow_flex_l	elbow_flex_r	pro_sup_l	pro_sup_r	glut_med1_l/activation	glut_med2_l/activation	glut_med3_l/activation	glut_min1_l/activation	glut_min2_l/activation	glut_min3_l/activation	semimem_l/activation	semiten_l/activation	bifemlh_l/activation	bifemsh_l/activation	sar_l/activation	add_long_l/activation	add_brev_l/activation	add_mag1_l/activation	add_mag2_l/activation	add_mag3_l/activation	tfl_l/activation	pect_l/activation	grac_l/activation	glut_max1_l/activation	glut_max2_l/activation	glut_max3_l/activation	iliacus_l/activation	psoas_l/activation	quad_fem_l/activation	gem_l/activation	peri_l/activation	rect_fem_l/activation	vas_med_l/activation	vas_int_l/activation	vas_lat_l/activation	med_gas_l/activation	lat_gas_l/activation	soleus_l/activation	tib_post_l/activation	flex_dig_l/activation	flex_hal_l/activation	tib_ant_l/activation	per_brev_l/activation	per_long_l/activation	per_tert_l/activation	ext_dig_l/activation	ext_hal_l/activation	ercspn_l/activation	intobl_l/activation	extobl_l/activation	glut_med1_r/activation	glut_med2_r/activation	glut_med3_r/activation	glut_min1_r/activation	glut_min2_r/activation	glut_min3_r/activation	semimem_r/activation	semiten_r/activation	bifemlh_r/activation	bifemsh_r/activation	sar_r/activation	add_long_r/activation	add_brev_r/activation	add_mag1_r/activation	add_mag2_r/activation	add_mag3_r/activation	tfl_r/activation	pect_r/activation	grac_r/activation	glut_max1_r/activation	glut_max2_r/activation	glut_max3_r/activation	iliacus_r/activation	psoas_r/activation	quad_fem_r/activation	gem_r/activation	peri_r/activation	rect_fem_r/activation	vas_med_r/activation	vas_int_r/activation	vas_lat_r/activation	med_gas_r/activation	lat_gas_r/activation	soleus_r/activation	tib_post_r/activation	flex_dig_r/activation	flex_hal_r/activation	tib_ant_r/activation	per_brev_r/activation	per_long_r/activation	per_tert_r/activation	ext_dig_r/activation	ext_hal_r/activation	ercspn_r/activation	intobl_r/activation	extobl_r/activation	
          1.11160288	         -2.92552785	         -2.45591554	          6.06769168	          1.38950359	          0.85524790	         -0.00324765	        -18.18413671	         -2.07112680	          7.96380419	         32.15689862	          3.29356595	         -2.92866618	         -8.85934116	        -15.66698813	         -0.65134554	          5.59138754	         11.80675159	         -2.85101368	          2.05437693	          0.03838387	         23.02093422	         -0.10797089	         -2.17459624	          1.04868639	         -2.00883622	          6.99914433	        -13.46407995	         16.26545047	        -10.37717289	        -13.62047864	          5.11903796	         41.57288554	         15.97766641	         86.51662706	         86.51662706	          0.25271792	          0.09729454	          0.05127472	          0.31560890	          0.20001606	          0.09871943	          0.05000143	          0.05000019	          0.05000015	          0.07598145	          0.10389400	          0.12227577	          0.05000077	          0.05000053	          0.05000101	          0.05000087	          0.31046440	          0.05124004	          0.05000051	          0.05000276	          0.05000177	          0.05000107	          0.38473824	          0.61108362	          0.05000012	          0.05000046	          0.05000014	          0.23348252	          0.12643790	          0.05005158	          0.05044164	          0.29837486	          0.40210700	          0.28288891	          0.25040358	          0.27251317	          0.34429423	          0.05000001	          0.07083837	          0.17460259	          0.05000012	          0.05000003	          0.05000010	          0.05000001	          0.05000002	          0.05000003	          0.05922083	          0.05000053	          0.05000067	          0.05000071	          0.05000064	          0.05000125	          0.05926317	          0.05926282	          0.28227191	          0.05000036	          0.05000054	          0.11695384	          0.21319553	          0.16461874	          0.16916667	          0.11602290	          0.05000128	          0.05124495	          0.05926351	          0.05000127	          0.06747209	          0.11821445	          0.05593815	          0.05901816	          0.27033063	          0.06007064	          0.07203713	          0.05148161	          0.14877021	          0.15089331	          0.12690626	          0.05926290	          0.05000135	          0.05926334	          0.05000008	          0.05000214	          0.05001733	          0.53691877	          0.37142886	          0.21316764	          0.30012441	          0.58149286	          0.25091716	          0.06008512	          0.09543122	          0.09617195	
          1.12271890	         -2.91563955	         -2.55601809	          6.31642321	          1.40664203	          0.85418599	         -0.00302161	        -17.90193451	         -2.38063501	          7.77192866	         31.48331999	          3.73034317	         -2.74050377	        -11.07681506	        -15.55421967	         -1.61810005	          5.02581936	         12.92581442	         -3.36830431	          1.70510384	          0.04958216	         24.08593281	         -0.10048380	         -1.94768824	          1.29075814	         -2.10167941	          6.72265491	        -13.48578515	         16.49138299	        -11.52115297	        -13.61163311	          4.97423877	         42.78113716	         15.88194480	         86.51662706	         86.51662706	          0.21321606	          0.08208662	          0.05159976	          0.26627674	          0.16875194	          0.08328880	          0.05000435	          0.05000036	          0.05000048	          0.06410494	          0.08765471	          0.20561439	          0.15912935	          0.07024875	          0.05002808	          0.05000159	          0.26193642	          0.10842173	          0.05915806	          0.05000217	          0.05000119	          0.05000109	          0.32460049	          0.54723306	          0.05002759	          0.05926836	          0.05926350	          0.19698728	          0.13863100	          0.13863316	          0.13863301	          0.25173638	          0.33925434	          0.23867102	          0.21126349	          0.22991733	          0.29047833	          0.05000001	          0.05976579	          0.14731090	          0.05000008	          0.05000002	          0.05000009	          0.05923503	          0.07024290	          0.05000010	          0.05000004	          0.05000013	          0.07569588	          0.05000011	          0.05000017	          0.05000017	          0.05000004	          0.05000007	          0.24116665	          0.05000007	          0.05000192	          0.09867329	          0.17987155	          0.34056129	          0.23859977	          0.10594946	          0.05000017	          0.05000404	          0.05000059	          0.05926332	          0.05926869	          0.14544624	          0.05000009	          0.05000029	          0.58090699	          0.13869369	          0.13010069	          0.07024290	          0.23987173	          0.24015632	          0.20483811	          0.05000000	          0.05000002	          0.05000000	          0.05000020	          0.07023789	          0.05000066	          0.63219414	          0.31337173	          0.21463155	          0.51445643	          0.61955101	          0.26816429	          0.05069333	          0.08051453	          0.08113948	
          1.13383493	         -2.90124050	         -2.65777040	          6.53561109	          1.42405066	          0.85306414	         -0.00281198	        -17.53426793	         -2.67605886	          7.56961909	         30.65064631	          4.09481595	         -2.46627201	        -13.43141043	        -15.90818318	         -2.75246005	          4.48621415	         13.97072421	         -3.91768881	          1.34008679	         -0.04471299	         24.91268107	         -0.15462163	         -1.70089729	          1.53875827	         -2.18256801	          6.36159183	        -13.50796490	         16.64837601	        -12.65683786	        -13.60810775	          4.89552108	         43.95302334	         15.78637461	         86.51662706	         86.51662706	          0.31509731	          0.06925582	          0.05000019	          0.22465587	          0.14237467	          0.07027010	          0.05000129	          0.05000017	          0.05000018	          0.05408483	          0.07395371	          0.17472352	          0.25715079	          0.05926888	          0.05926142	          0.05007114	          0.22099429	          0.09147836	          0.05000142	          0.05003561	          0.05003464	          0.05014247	          0.27386277	          0.49866318	          0.05551910	          0.05000469	          0.05000017	          0.16619654	          0.11696374	          0.11696395	          0.11696371	          0.21238789	          0.28622606	          0.20136475	          0.17824127	          0.19397944	          0.24507421	          0.07275988	          0.08859283	          0.18031946	          0.05000013	          0.13757687	          0.05000055	          0.07351691	          0.05926335	          0.05000009	          0.30043691	          0.27121080	          0.31618237	          0.05000107	          0.05000050	          0.22677107	          0.09116993	          0.10679086	          0.20945387	          0.05000043	          0.05000072	          0.08325486	          0.20246637	          0.28732892	          0.20132603	          0.15233748	          0.05000033	          0.07024090	          0.15053846	          0.05000016	          0.05000454	          0.12271210	          0.05569362	          0.05000052	          0.49010641	          0.11701480	          0.24112409	          0.05926336	          0.20237784	          0.20261797	          0.17282026	          0.05926337	          0.05926336	          0.05926335	          0.05000014	          0.05926022	          0.05926327	          0.53337747	          0.41068716	          0.20329207	          0.43404337	          0.63690937	          0.22624808	          0.05562063	          0.08325673	          0.06845671	
          1.14495096	         -2.88430133	         -2.75705601	          6.72018733	          1.44150716	          0.85189983	         -0.00258895	        -17.05181637	         -2.94921216	          7.36326093	         29.69498423	          4.41711557	         -2.17293519	        -15.95693723	        -16.28576844	         -3.94145132	          4.16786352	         14.92381394	         -4.49101293	          0.93682194	         -0.02100467	         25.27337722	         -0.16544102	         -1.45538322	          1.78592253	         -2.25266208	          5.95524805	        -13.53599065	         16.75906711	        -13.72973738	        -13.60834435	          4.90246754	         45.06463416	         15.65422838	         86.51662706	         86.51662706	          0.26584506	          0.05843058	          0.05000003	          0.20369538	          0.12012039	          0.05928635	          0.05000390	          0.05000023	          0.05000022	          0.05000014	          0.06239443	          0.18214711	          0.21695633	          0.05000483	          0.05000077	          0.05000095	          0.18645225	          0.07718025	          0.05000036	          0.05000056	          0.05000035	          0.05000020	          0.23105576	          0.43989776	          0.05000004	          0.05000023	          0.05000012	          0.14021864	          0.09868139	          0.09868155	          0.09868134	          0.17918989	          0.24148655	          0.16988976	          0.15038071	          0.16365897	          0.20676718	          0.17473162	          0.12696412	          0.15213415	          0.33142402	          0.24316866	          0.13708813	          0.10437064	          0.05000001	          0.05000003	          0.39870685	          0.42474497	          0.46796399	          0.26549505	          0.22935667	          0.31945877	          0.08156659	          0.12470278	          0.17671450	          0.07024319	          0.05000069	          0.07024148	          0.17081922	          0.24241727	          0.21927157	          0.17624959	          0.05000019	          0.05926217	          0.12700905	          0.26085058	          0.19503824	          0.16731255	          0.05000010	          0.05000011	          0.41349874	          0.09872456	          0.20343994	          0.05000004	          0.20070499	          0.24649129	          0.19075109	          0.05000003	          0.05000005	          0.05000000	          0.05000000	          0.05000013	          0.05000010	          0.68631765	          0.34649349	          0.17151596	          0.67493697	          0.68340782	          0.39632661	          0.08272526	          0.07024304	          0.05775637	
